{
    "asset" : {
        "generator" : "Khronos glTF Blender I/O v1.2.75",
        "version" : "2.0"
    },
    "extensionsUsed" : [
        "KHR_texture_transform"
    ],
    "extensionsRequired" : [
        "KHR_texture_transform"
    ],
    "scene" : 0,
    "scenes" : [
        {
            "name" : "Scene",
            "nodes" : [
                7
            ]
        }
    ],
    "nodes" : [
        {
            "mesh" : 0,
            "name" : "\u30d1\u30cd\u30eb"
        },
        {
            "mesh" : 1,
            "name" : "\u30dc\u30bf\u30f3"
        },
        {
            "mesh" : 2,
            "name" : "\u30ed\u30b4"
        },
        {
            "mesh" : 3,
            "name" : "\u672c\u4f53"
        },
        {
            "mesh" : 4,
            "name" : "\u672c\u4f53_1"
        },
        {
            "mesh" : 5,
            "name" : "\u672c\u4f53\u9ed2"
        },
        {
            "mesh" : 6,
            "name" : "\u91d1\u5c5e"
        },
        {
            "children" : [
                0,
                1,
                2,
                3,
                4,
                5,
                6
            ],
            "name" : "5525",
            "rotation" : [
                0.7071068286895752,
                0,
                0,
                0.7071067094802856
            ],
            "scale" : [
                0.009999999776482582,
                0.009999999776482582,
                0.009999999776482582
            ]
        }
    ],
    "materials" : [
        {
            "doubleSided" : true,
            "emissiveFactor" : [
                0,
                0,
                0
            ],
            "name" : "paneru",
            "pbrMetallicRoughness" : {
                "baseColorTexture" : {
                    "extensions" : {
                        "KHR_texture_transform" : {
                            "offset" : [
                                0,
                                -1
                            ]
                        }
                    },
                    "index" : 0,
                    "texCoord" : 0
                },
                "metallicFactor" : 1,
                "roughnessFactor" : 0.5527864098548889
            }
        },
        {
            "doubleSided" : true,
            "emissiveFactor" : [
                0,
                0,
                0
            ],
            "name" : "\u672c\u4f53\u9ed2",
            "pbrMetallicRoughness" : {
                "baseColorTexture" : {
                    "extensions" : {
                        "KHR_texture_transform" : {
                            "offset" : [
                                0,
                                -1
                            ]
                        }
                    },
                    "index" : 1,
                    "texCoord" : 0
                },
                "metallicFactor" : 0,
                "roughnessFactor" : 0.25098124146461487
            }
        },
        {
            "doubleSided" : true,
            "emissiveFactor" : [
                0,
                0,
                0
            ],
            "name" : "Mat.5",
            "pbrMetallicRoughness" : {
                "baseColorFactor" : [
                    0.800000011920929,
                    0.800000011920929,
                    0.800000011920929,
                    1
                ],
                "metallicFactor" : 0,
                "roughnessFactor" : 0.4343145787715912
            }
        },
        {
            "doubleSided" : true,
            "emissiveFactor" : [
                0,
                0,
                0
            ],
            "name" : "Mat.6",
            "pbrMetallicRoughness" : {
                "baseColorFactor" : [
                    0.800000011920929,
                    0.7733333110809326,
                    0,
                    1
                ],
                "metallicFactor" : 0,
                "roughnessFactor" : 0.4343145787715912
            }
        },
        {
            "doubleSided" : true,
            "emissiveFactor" : [
                0,
                0,
                0
            ],
            "name" : "Mat.7",
            "pbrMetallicRoughness" : {
                "baseColorFactor" : [
                    0,
                    0.6933333277702332,
                    0.800000011920929,
                    1
                ],
                "metallicFactor" : 0,
                "roughnessFactor" : 0.4343145787715912
            }
        },
        {
            "doubleSided" : true,
            "emissiveFactor" : [
                0,
                0,
                0
            ],
            "name" : "rogo",
            "pbrMetallicRoughness" : {
                "baseColorTexture" : {
                    "extensions" : {
                        "KHR_texture_transform" : {
                            "offset" : [
                                0,
                                -1
                            ]
                        }
                    },
                    "index" : 2,
                    "texCoord" : 0
                },
                "metallicFactor" : 0,
                "roughnessFactor" : 0.4000000059604645
            }
        },
        {
            "doubleSided" : true,
            "emissiveFactor" : [
                0,
                0,
                0
            ],
            "name" : "\u672c\u4f53",
            "pbrMetallicRoughness" : {
                "baseColorTexture" : {
                    "extensions" : {
                        "KHR_texture_transform" : {
                            "offset" : [
                                0,
                                -1
                            ]
                        }
                    },
                    "index" : 3,
                    "texCoord" : 0
                },
                "metallicFactor" : 0,
                "roughnessFactor" : 0.4000000059604645
            }
        },
        {
            "doubleSided" : true,
            "emissiveFactor" : [
                0,
                0,
                0
            ],
            "name" : "Mat.4",
            "pbrMetallicRoughness" : {
                "baseColorFactor" : [
                    0.4299163222312927,
                    0.4299163222312927,
                    0.4299163222312927,
                    1
                ],
                "metallicFactor" : 0.8616666793823242,
                "roughnessFactor" : 0.25098124146461487
            }
        }
    ],
    "meshes" : [
        {
            "name" : "\u30e1\u30c3\u30b7\u30e5.002",
            "primitives" : [
                {
                    "attributes" : {
                        "POSITION" : 0,
                        "NORMAL" : 1,
                        "TEXCOORD_0" : 2
                    },
                    "indices" : 3,
                    "material" : 0
                }
            ]
        },
        {
            "name" : "\u30e1\u30c3\u30b7\u30e5.001",
            "primitives" : [
                {
                    "attributes" : {
                        "POSITION" : 4,
                        "NORMAL" : 5,
                        "TEXCOORD_0" : 6
                    },
                    "indices" : 7,
                    "material" : 1
                },
                {
                    "attributes" : {
                        "POSITION" : 8,
                        "NORMAL" : 9,
                        "TEXCOORD_0" : 10
                    },
                    "indices" : 3,
                    "material" : 2
                },
                {
                    "attributes" : {
                        "POSITION" : 11,
                        "NORMAL" : 12,
                        "TEXCOORD_0" : 13
                    },
                    "indices" : 14,
                    "material" : 3
                },
                {
                    "attributes" : {
                        "POSITION" : 15,
                        "NORMAL" : 16,
                        "TEXCOORD_0" : 17
                    },
                    "indices" : 18,
                    "material" : 4
                }
            ]
        },
        {
            "name" : "\u30e1\u30c3\u30b7\u30e5.003",
            "primitives" : [
                {
                    "attributes" : {
                        "POSITION" : 19,
                        "NORMAL" : 20,
                        "TEXCOORD_0" : 21
                    },
                    "indices" : 22,
                    "material" : 5
                }
            ]
        },
        {
            "name" : "\u30e1\u30c3\u30b7\u30e5.004",
            "primitives" : [
                {
                    "attributes" : {
                        "POSITION" : 23,
                        "NORMAL" : 24,
                        "TEXCOORD_0" : 25
                    },
                    "indices" : 26,
                    "material" : 6
                }
            ]
        },
        {
            "name" : "\u30e1\u30c3\u30b7\u30e5.005",
            "primitives" : [
                {
                    "attributes" : {
                        "POSITION" : 27,
                        "NORMAL" : 28,
                        "TEXCOORD_0" : 29
                    },
                    "indices" : 30,
                    "material" : 6
                }
            ]
        },
        {
            "name" : "\u30e1\u30c3\u30b7\u30e5",
            "primitives" : [
                {
                    "attributes" : {
                        "POSITION" : 31,
                        "NORMAL" : 32,
                        "TEXCOORD_0" : 33
                    },
                    "indices" : 34,
                    "material" : 1
                }
            ]
        },
        {
            "name" : "\u30e1\u30c3\u30b7\u30e5.006",
            "primitives" : [
                {
                    "attributes" : {
                        "POSITION" : 35,
                        "NORMAL" : 36,
                        "TEXCOORD_0" : 37
                    },
                    "indices" : 38,
                    "material" : 7
                }
            ]
        }
    ],
    "textures" : [
        {
            "source" : 0
        },
        {
            "source" : 1
        },
        {
            "source" : 2
        },
        {
            "source" : 3
        }
    ],
    "images" : [
        {
            "bufferView" : 4,
            "mimeType" : "image/jpeg",
            "name" : "Control_Panel_JP"
        },
        {
            "bufferView" : 9,
            "mimeType" : "image/jpeg",
            "name" : "\u672c\u4f53\u9ed2"
        },
        {
            "bufferView" : 25,
            "mimeType" : "image/jpeg",
            "name" : "\u30ed\u30b4"
        },
        {
            "bufferView" : 30,
            "mimeType" : "image/jpeg",
            "name" : "\u672c\u4f53"
        }
    ],
    "accessors" : [
        {
            "bufferView" : 0,
            "componentType" : 5126,
            "count" : 4,
            "max" : [
                20.566499710083008,
                41.20991134643555,
                -102.66275024414062
            ],
            "min" : [
                -1.7795090675354004,
                28.36798095703125,
                -104.21128845214844
            ],
            "type" : "VEC3"
        },
        {
            "bufferView" : 1,
            "componentType" : 5126,
            "count" : 4,
            "type" : "VEC3"
        },
        {
            "bufferView" : 2,
            "componentType" : 5126,
            "count" : 4,
            "type" : "VEC2"
        },
        {
            "bufferView" : 3,
            "componentType" : 5123,
            "count" : 6,
            "type" : "SCALAR"
        },
        {
            "bufferView" : 5,
            "componentType" : 5126,
            "count" : 24,
            "max" : [
                26.15281105041504,
                35.91862487792969,
                -103.62890625
            ],
            "min" : [
                22.92930030822754,
                29.18905258178711,
                -104.46569061279297
            ],
            "type" : "VEC3"
        },
        {
            "bufferView" : 6,
            "componentType" : 5126,
            "count" : 24,
            "type" : "VEC3"
        },
        {
            "bufferView" : 7,
            "componentType" : 5126,
            "count" : 24,
            "type" : "VEC2"
        },
        {
            "bufferView" : 8,
            "componentType" : 5123,
            "count" : 42,
            "type" : "SCALAR"
        },
        {
            "bufferView" : 10,
            "componentType" : 5126,
            "count" : 4,
            "max" : [
                26.15281105041504,
                30.34913444519043,
                -104.32144165039062
            ],
            "min" : [
                24.905506134033203,
                29.18905258178711,
                -104.46569061279297
            ],
            "type" : "VEC3"
        },
        {
            "bufferView" : 11,
            "componentType" : 5126,
            "count" : 4,
            "type" : "VEC3"
        },
        {
            "bufferView" : 12,
            "componentType" : 5126,
            "count" : 4,
            "type" : "VEC2"
        },
        {
            "bufferView" : 13,
            "componentType" : 5126,
            "count" : 8,
            "max" : [
                26.15281105041504,
                37.98979949951172,
                -103.3713607788086
            ],
            "min" : [
                22.92930030822754,
                36.59105682373047,
                -103.5452880859375
            ],
            "type" : "VEC3"
        },
        {
            "bufferView" : 14,
            "componentType" : 5126,
            "count" : 8,
            "type" : "VEC3"
        },
        {
            "bufferView" : 15,
            "componentType" : 5126,
            "count" : 8,
            "type" : "VEC2"
        },
        {
            "bufferView" : 16,
            "componentType" : 5123,
            "count" : 18,
            "type" : "SCALAR"
        },
        {
            "bufferView" : 17,
            "componentType" : 5126,
            "count" : 8,
            "max" : [
                26.15281105041504,
                40.25479507446289,
                -103.0897216796875
            ],
            "min" : [
                22.92930030822754,
                38.6783561706543,
                -103.3006362915039
            ],
            "type" : "VEC3"
        },
        {
            "bufferView" : 18,
            "componentType" : 5126,
            "count" : 8,
            "type" : "VEC3"
        },
        {
            "bufferView" : 19,
            "componentType" : 5126,
            "count" : 8,
            "type" : "VEC2"
        },
        {
            "bufferView" : 20,
            "componentType" : 5123,
            "count" : 18,
            "type" : "SCALAR"
        },
        {
            "bufferView" : 21,
            "componentType" : 5126,
            "count" : 180,
            "max" : [
                25.9050350189209,
                29.162599563598633,
                -21.125144958496094
            ],
            "min" : [
                -28.754337310791016,
                26.13739585876465,
                -104.58441162109375
            ],
            "type" : "VEC3"
        },
        {
            "bufferView" : 22,
            "componentType" : 5126,
            "count" : 180,
            "type" : "VEC3"
        },
        {
            "bufferView" : 23,
            "componentType" : 5126,
            "count" : 180,
            "type" : "VEC2"
        },
        {
            "bufferView" : 24,
            "componentType" : 5123,
            "count" : 504,
            "type" : "SCALAR"
        },
        {
            "bufferView" : 26,
            "componentType" : 5126,
            "count" : 10749,
            "max" : [
                28.754301071166992,
                42.77629852294922,
                -4.51344108581543
            ],
            "min" : [
                -28.767942428588867,
                -34.63740158081055,
                -122.77094268798828
            ],
            "type" : "VEC3"
        },
        {
            "bufferView" : 27,
            "componentType" : 5126,
            "count" : 10749,
            "type" : "VEC3"
        },
        {
            "bufferView" : 28,
            "componentType" : 5126,
            "count" : 10749,
            "type" : "VEC2"
        },
        {
            "bufferView" : 29,
            "componentType" : 5123,
            "count" : 40743,
            "type" : "SCALAR"
        },
        {
            "bufferView" : 31,
            "componentType" : 5126,
            "count" : 402,
            "max" : [
                28.678781509399414,
                29.162599563598633,
                -16.369691848754883
            ],
            "min" : [
                -28.754337310791016,
                26.862600326538086,
                -46.713443756103516
            ],
            "type" : "VEC3"
        },
        {
            "bufferView" : 32,
            "componentType" : 5126,
            "count" : 402,
            "type" : "VEC3"
        },
        {
            "bufferView" : 33,
            "componentType" : 5126,
            "count" : 402,
            "type" : "VEC2"
        },
        {
            "bufferView" : 34,
            "componentType" : 5123,
            "count" : 1206,
            "type" : "SCALAR"
        },
        {
            "bufferView" : 35,
            "componentType" : 5126,
            "count" : 1420,
            "max" : [
                37.361351013183594,
                34.65270233154297,
                0
            ],
            "min" : [
                -28.767942428588867,
                -37.78655242919922,
                -114.94135284423828
            ],
            "type" : "VEC3"
        },
        {
            "bufferView" : 36,
            "componentType" : 5126,
            "count" : 1420,
            "type" : "VEC3"
        },
        {
            "bufferView" : 37,
            "componentType" : 5126,
            "count" : 1420,
            "type" : "VEC2"
        },
        {
            "bufferView" : 38,
            "componentType" : 5123,
            "count" : 3924,
            "type" : "SCALAR"
        },
        {
            "bufferView" : 39,
            "componentType" : 5126,
            "count" : 1136,
            "max" : [
                28.678781509399414,
                33.63260269165039,
                -0.6134471297264099
            ],
            "min" : [
                -28.754337310791016,
                -36.00740432739258,
                -61.973445892333984
            ],
            "type" : "VEC3"
        },
        {
            "bufferView" : 40,
            "componentType" : 5126,
            "count" : 1136,
            "type" : "VEC3"
        },
        {
            "bufferView" : 41,
            "componentType" : 5126,
            "count" : 1136,
            "type" : "VEC2"
        },
        {
            "bufferView" : 42,
            "componentType" : 5123,
            "count" : 3186,
            "type" : "SCALAR"
        }
    ],
    "bufferViews" : [
        {
            "buffer" : 0,
            "byteLength" : 48,
            "byteOffset" : 0
        },
        {
            "buffer" : 0,
            "byteLength" : 48,
            "byteOffset" : 48
        },
        {
            "buffer" : 0,
            "byteLength" : 32,
            "byteOffset" : 96
        },
        {
            "buffer" : 0,
            "byteLength" : 12,
            "byteOffset" : 128
        },
        {
            "buffer" : 0,
            "byteLength" : 115833,
            "byteOffset" : 140
        },
        {
            "buffer" : 0,
            "byteLength" : 288,
            "byteOffset" : 115976
        },
        {
            "buffer" : 0,
            "byteLength" : 288,
            "byteOffset" : 116264
        },
        {
            "buffer" : 0,
            "byteLength" : 192,
            "byteOffset" : 116552
        },
        {
            "buffer" : 0,
            "byteLength" : 84,
            "byteOffset" : 116744
        },
        {
            "buffer" : 0,
            "byteLength" : 50273,
            "byteOffset" : 116828
        },
        {
            "buffer" : 0,
            "byteLength" : 48,
            "byteOffset" : 167104
        },
        {
            "buffer" : 0,
            "byteLength" : 48,
            "byteOffset" : 167152
        },
        {
            "buffer" : 0,
            "byteLength" : 32,
            "byteOffset" : 167200
        },
        {
            "buffer" : 0,
            "byteLength" : 96,
            "byteOffset" : 167232
        },
        {
            "buffer" : 0,
            "byteLength" : 96,
            "byteOffset" : 167328
        },
        {
            "buffer" : 0,
            "byteLength" : 64,
            "byteOffset" : 167424
        },
        {
            "buffer" : 0,
            "byteLength" : 36,
            "byteOffset" : 167488
        },
        {
            "buffer" : 0,
            "byteLength" : 96,
            "byteOffset" : 167524
        },
        {
            "buffer" : 0,
            "byteLength" : 96,
            "byteOffset" : 167620
        },
        {
            "buffer" : 0,
            "byteLength" : 64,
            "byteOffset" : 167716
        },
        {
            "buffer" : 0,
            "byteLength" : 36,
            "byteOffset" : 167780
        },
        {
            "buffer" : 0,
            "byteLength" : 2160,
            "byteOffset" : 167816
        },
        {
            "buffer" : 0,
            "byteLength" : 2160,
            "byteOffset" : 169976
        },
        {
            "buffer" : 0,
            "byteLength" : 1440,
            "byteOffset" : 172136
        },
        {
            "buffer" : 0,
            "byteLength" : 1008,
            "byteOffset" : 173576
        },
        {
            "buffer" : 0,
            "byteLength" : 118658,
            "byteOffset" : 174584
        },
        {
            "buffer" : 0,
            "byteLength" : 128988,
            "byteOffset" : 293244
        },
        {
            "buffer" : 0,
            "byteLength" : 128988,
            "byteOffset" : 422232
        },
        {
            "buffer" : 0,
            "byteLength" : 85992,
            "byteOffset" : 551220
        },
        {
            "buffer" : 0,
            "byteLength" : 81486,
            "byteOffset" : 637212
        },
        {
            "buffer" : 0,
            "byteLength" : 92596,
            "byteOffset" : 718700
        },
        {
            "buffer" : 0,
            "byteLength" : 4824,
            "byteOffset" : 811296
        },
        {
            "buffer" : 0,
            "byteLength" : 4824,
            "byteOffset" : 816120
        },
        {
            "buffer" : 0,
            "byteLength" : 3216,
            "byteOffset" : 820944
        },
        {
            "buffer" : 0,
            "byteLength" : 2412,
            "byteOffset" : 824160
        },
        {
            "buffer" : 0,
            "byteLength" : 17040,
            "byteOffset" : 826572
        },
        {
            "buffer" : 0,
            "byteLength" : 17040,
            "byteOffset" : 843612
        },
        {
            "buffer" : 0,
            "byteLength" : 11360,
            "byteOffset" : 860652
        },
        {
            "buffer" : 0,
            "byteLength" : 7848,
            "byteOffset" : 872012
        },
        {
            "buffer" : 0,
            "byteLength" : 13632,
            "byteOffset" : 879860
        },
        {
            "buffer" : 0,
            "byteLength" : 13632,
            "byteOffset" : 893492
        },
        {
            "buffer" : 0,
            "byteLength" : 9088,
            "byteOffset" : 907124
        },
        {
            "buffer" : 0,
            "byteLength" : 6372,
            "byteOffset" : 916212
        }
    ],
    "buffers" : [
        {
            "byteLength" : 922584,
            "uri" : "data:application/octet-stream;base64,"
        }
    ]
}
